<svg width="142" height="37" viewBox="0 0 142 37" fill="none" xmlns="http://www.w3.org/2000/svg">
<rect width="142" height="36" rx="18" fill="#2B2A2A"/>
<ellipse cx="113.114" cy="21.5" rx="15.7348" ry="15.5" fill="#F5F2F2"/>
<g clip-path="url(#clip0_41_214)">
<path fill-rule="evenodd" clip-rule="evenodd" d="M113.061 2C103.266 2 95.3485 9.79172 95.3485 19.4311C95.3485 27.1364 99.772 33.6588 106.81 35.9673C107.69 36.1408 108.662 35.5922 108.662 35.1307C108.662 34.7266 108.633 33.3415 108.633 31.8982C103.706 32.9374 102.68 29.8203 102.68 29.8203C101.888 27.8002 100.715 27.2809 100.715 27.2809C99.102 26.2131 100.832 26.2131 100.832 26.2131C102.621 26.3286 103.56 28.0024 103.56 28.0024C105.143 30.6572 107.694 29.9071 108.721 29.4453C108.867 28.3197 109.337 27.5405 109.835 27.1078C105.905 26.7036 101.771 25.203 101.771 18.5075C101.771 16.6027 102.474 15.0444 103.589 13.8324C103.413 13.3996 102.797 11.61 103.765 9.21478C103.765 9.21478 105.26 8.75294 108.632 11.004C110.076 10.6225 111.565 10.4284 113.061 10.4267C114.556 10.4267 116.081 10.629 117.489 11.004C120.861 8.75294 122.357 9.21478 122.357 9.21478C123.325 11.61 122.708 13.3996 122.532 13.8324C123.676 15.0444 124.351 16.6027 124.351 18.5075C124.351 25.203 120.216 26.6746 116.257 27.1078C116.902 27.656 117.459 28.6948 117.459 30.3399C117.459 32.6774 117.43 34.5534 117.43 35.1304C117.43 35.5922 118.538 36.1405 119.417 35.9673C127.833 36.5 130.744 27.1364 130.744 19.4311C130.773 9.79172 122.826 2 113.061 2Z" fill="#2B2A2A"/>
</g>
<path d="M29.24 24.2C27.8267 24.2 26.7 23.9067 25.86 23.32C25.02 22.72 24.56 21.8933 24.48 20.84H26.78C26.8467 21.36 27.0933 21.7533 27.52 22.02C27.9467 22.2867 28.52 22.42 29.24 22.42C29.8933 22.42 30.38 22.32 30.7 22.12C31.0333 21.9067 31.2 21.6067 31.2 21.22C31.2 20.94 31.1067 20.7133 30.92 20.54C30.7333 20.3533 30.38 20.2 29.86 20.08L28.22 19.7C27.1 19.46 26.2667 19.0867 25.72 18.58C25.1867 18.06 24.92 17.4133 24.92 16.64C24.92 15.6933 25.28 14.9533 26 14.42C26.7333 13.8733 27.74 13.6 29.02 13.6C30.2867 13.6 31.3 13.8733 32.06 14.42C32.8333 14.9533 33.26 15.6933 33.34 16.64H31.04C30.9733 16.2267 30.76 15.9133 30.4 15.7C30.0533 15.4867 29.5733 15.38 28.96 15.38C28.3867 15.38 27.9533 15.4733 27.66 15.66C27.3667 15.8333 27.22 16.0933 27.22 16.44C27.22 16.7067 27.3333 16.9333 27.56 17.12C27.7867 17.2933 28.1667 17.4467 28.7 17.58L30.46 17.98C31.46 18.2067 32.2133 18.6 32.72 19.16C33.24 19.72 33.5 20.38 33.5 21.14C33.5 22.1133 33.1267 22.8667 32.38 23.4C31.6333 23.9333 30.5867 24.2 29.24 24.2ZM40.1948 24.2C39.1148 24.2 38.1615 23.9733 37.3348 23.52C36.5215 23.0667 35.8882 22.44 35.4348 21.64C34.9815 20.8267 34.7548 19.9 34.7548 18.86C34.7548 17.82 34.9815 16.9067 35.4348 16.12C35.8882 15.3333 36.5215 14.72 37.3348 14.28C38.1615 13.8267 39.1148 13.6 40.1948 13.6C41.2882 13.6 42.2415 13.8267 43.0548 14.28C43.8682 14.72 44.5015 15.3333 44.9548 16.12C45.4082 16.9067 45.6348 17.82 45.6348 18.86C45.6348 19.9 45.4015 20.8267 44.9348 21.64C44.4815 22.44 43.8482 23.0667 43.0348 23.52C42.2215 23.9733 41.2748 24.2 40.1948 24.2ZM40.1948 22.18C40.7282 22.18 41.2082 22.0467 41.6348 21.78C42.0615 21.5 42.3948 21.1133 42.6348 20.62C42.8748 20.1133 42.9948 19.52 42.9948 18.84C42.9948 17.84 42.7282 17.0533 42.1948 16.48C41.6748 15.9067 41.0082 15.62 40.1948 15.62C39.3815 15.62 38.7082 15.9067 38.1748 16.48C37.6415 17.0533 37.3748 17.84 37.3748 18.84C37.3748 19.52 37.4948 20.1133 37.7348 20.62C37.9882 21.1133 38.3215 21.5 38.7348 21.78C39.1615 22.0467 39.6482 22.18 40.1948 22.18ZM50.7884 24.2C50.0818 24.2 49.4684 24.0533 48.9484 23.76C48.4418 23.4533 48.0484 23.04 47.7684 22.52C47.5018 22 47.3684 21.4133 47.3684 20.76V13.8H49.8884V20.24C49.8884 20.8667 50.0418 21.34 50.3484 21.66C50.6684 21.98 51.1151 22.14 51.6884 22.14C52.2084 22.14 52.6618 22.02 53.0484 21.78C53.4484 21.54 53.7618 21.2067 53.9884 20.78C54.2284 20.34 54.3484 19.8467 54.3484 19.3L54.6084 21.74C54.2751 22.4867 53.7751 23.0867 53.1084 23.54C52.4551 23.98 51.6818 24.2 50.7884 24.2ZM54.4284 24V21.6H54.3484V13.8H56.8884V24H54.4284ZM59.5588 24V13.8H62.0188V16.26H62.0788V24H59.5588ZM62.0788 18.68L61.8188 16.26C62.0588 15.3933 62.4654 14.7333 63.0388 14.28C63.6121 13.8267 64.2988 13.6 65.0988 13.6C65.3788 13.6 65.5788 13.6267 65.6988 13.68V16.06C65.6321 16.0333 65.5388 16.02 65.4188 16.02C65.2988 16.0067 65.1521 16 64.9788 16C64.0054 16 63.2788 16.2133 62.7988 16.64C62.3188 17.0667 62.0788 17.7467 62.0788 18.68ZM71.5569 24.2C70.5302 24.2 69.6235 23.9733 68.8369 23.52C68.0635 23.0667 67.4502 22.44 66.9969 21.64C66.5569 20.8267 66.3369 19.9067 66.3369 18.88C66.3369 17.8533 66.5569 16.9467 66.9969 16.16C67.4502 15.36 68.0635 14.7333 68.8369 14.28C69.6235 13.8267 70.5302 13.6 71.5569 13.6C72.3969 13.6 73.1569 13.76 73.8369 14.08C74.5169 14.3867 75.0769 14.8267 75.5169 15.4C75.9569 15.96 76.2369 16.6133 76.3569 17.36H73.9369C73.7902 16.8133 73.5102 16.3867 73.0969 16.08C72.6835 15.7733 72.1835 15.62 71.5969 15.62C71.0502 15.62 70.5769 15.7533 70.1769 16.02C69.7902 16.2867 69.4902 16.6667 69.2769 17.16C69.0635 17.6533 68.9569 18.2267 68.9569 18.88C68.9569 19.5467 69.0635 20.1267 69.2769 20.62C69.4902 21.1133 69.7969 21.5 70.1969 21.78C70.5969 22.0467 71.0635 22.18 71.5969 22.18C72.1835 22.18 72.6835 22.0267 73.0969 21.72C73.5102 21.4133 73.7902 20.9867 73.9369 20.44H76.3569C76.2369 21.1867 75.9502 21.8467 75.4969 22.42C75.0569 22.98 74.4969 23.42 73.8169 23.74C73.1502 24.0467 72.3969 24.2 71.5569 24.2ZM82.6934 24.2C81.6134 24.2 80.6668 23.9733 79.8534 23.52C79.0534 23.0667 78.4268 22.44 77.9734 21.64C77.5334 20.84 77.3134 19.92 77.3134 18.88C77.3134 17.84 77.5334 16.9267 77.9734 16.14C78.4268 15.34 79.0534 14.72 79.8534 14.28C80.6534 13.8267 81.5868 13.6 82.6534 13.6C83.6668 13.6 84.5468 13.8133 85.2934 14.24C86.0401 14.6533 86.6201 15.24 87.0334 16C87.4468 16.76 87.6534 17.6467 87.6534 18.66C87.6534 18.8467 87.6468 19.02 87.6334 19.18C87.6201 19.34 87.6001 19.5 87.5734 19.66H78.8734V17.9H85.6334L85.1134 18.38C85.1134 17.42 84.8934 16.7 84.4534 16.22C84.0134 15.74 83.4001 15.5 82.6134 15.5C81.7601 15.5 81.0801 15.7933 80.5734 16.38C80.0801 16.9667 79.8334 17.8133 79.8334 18.92C79.8334 20.0133 80.0801 20.8533 80.5734 21.44C81.0801 22.0133 81.7934 22.3 82.7134 22.3C83.2468 22.3 83.7134 22.2 84.1134 22C84.5134 21.8 84.8068 21.4933 84.9934 21.08H87.3734C87.0401 22.04 86.4734 22.8 85.6734 23.36C84.8868 23.92 83.8934 24.2 82.6934 24.2Z" fill="#F5F2F2"/>
<defs>
<clipPath id="clip0_41_214">
<rect width="35.5303" height="34" fill="white" transform="translate(95.3485 2)"/>
</clipPath>
</defs>
</svg>
