<svg width="51" height="63" viewBox="0 0 51 63" fill="none" xmlns="http://www.w3.org/2000/svg">
<rect x="1.5" y="1.5" width="48" height="60" rx="24" fill="#FEB05D" stroke="#2B2A2A" stroke-width="3"/>
<path d="M14.916 43.082C15.1504 42.8008 15.332 42.4082 15.4609 41.9043C15.5898 41.4004 15.6836 40.8555 15.7422 40.2695C15.8125 39.6719 15.8535 39.0742 15.8652 38.4766C15.8887 37.8789 15.9004 37.3516 15.9004 36.8945C15.9004 36.4141 15.8828 35.8691 15.8477 35.2598C15.8125 34.6504 15.7539 34.0586 15.6719 33.4844C15.6016 32.8984 15.502 32.3711 15.373 31.9023C15.2559 31.4336 15.1094 31.0938 14.9336 30.8828C15.4492 30.8828 16.0176 30.7539 16.6387 30.4961C17.2598 30.2266 17.8457 29.8984 18.3965 29.5117C18.959 29.1133 19.4453 28.6914 19.8555 28.2461C20.2656 27.8008 20.5234 27.3906 20.6289 27.0156C21.2734 27.2383 22.0352 27.3965 22.9141 27.4902C23.793 27.584 24.8828 27.6309 26.1836 27.6309C27.0977 27.6309 27.8535 27.5781 28.4512 27.4727C29.0488 27.3672 29.5352 27.2148 29.9102 27.0156C30.1094 27.4258 30.4375 27.7949 30.8945 28.123C31.3633 28.4512 31.8672 28.7324 32.4062 28.9668C32.957 29.2012 33.502 29.3887 34.041 29.5293C34.5918 29.6582 35.043 29.7285 35.3945 29.7402C35.3008 29.9395 35.2129 30.1562 35.1309 30.3906C35.0605 30.625 34.9961 30.9004 34.9375 31.2168C34.8906 31.5332 34.8496 31.9082 34.8145 32.3418C34.791 32.7637 34.7793 33.2617 34.7793 33.8359C34.7793 34.2344 34.7852 34.6211 34.7969 34.9961C34.8203 35.3711 34.8496 35.7168 34.8848 36.0332C34.9199 36.3496 34.9551 36.6309 34.9902 36.877C35.0371 37.1113 35.084 37.2871 35.1309 37.4043C34.8379 37.3809 34.4453 37.3633 33.9531 37.3516C33.4609 37.3281 32.9219 37.3105 32.3359 37.2988C31.75 37.2754 31.1348 37.2637 30.4902 37.2637C29.8574 37.252 29.2539 37.2461 28.6797 37.2461C28 37.2461 27.3203 37.252 26.6406 37.2637C25.9727 37.2637 25.2812 37.2637 24.5664 37.2637C23.9688 37.2637 23.4941 37.3164 23.1426 37.4219C22.791 37.5273 22.5215 37.6738 22.334 37.8613C22.1582 38.0371 22.041 38.2539 21.9824 38.5117C21.9355 38.7695 21.9121 39.0508 21.9121 39.3555C21.9121 39.8125 22.0234 40.2285 22.2461 40.6035C22.4688 40.9785 22.7734 41.3008 23.1602 41.5703C23.5469 41.8281 24.0039 42.0332 24.5312 42.1855C25.0586 42.3262 25.6211 42.3965 26.2188 42.3965C26.7109 42.3965 27.1035 42.3262 27.3965 42.1855C27.6895 42.0332 27.9121 41.834 28.0645 41.5879C28.2285 41.3418 28.334 41.0547 28.3809 40.7266C28.4277 40.3984 28.4512 40.0469 28.4512 39.6719C28.5918 39.7188 28.8027 39.7598 29.084 39.7949C29.3652 39.8301 29.6699 39.8594 29.998 39.8828C30.3262 39.8945 30.6543 39.9062 30.9824 39.918C31.3223 39.9297 31.6152 39.9355 31.8613 39.9355C32.1074 39.9355 32.3887 39.9297 32.7051 39.918C33.0215 39.9062 33.332 39.8945 33.6367 39.8828C33.9531 39.8594 34.2461 39.8301 34.5156 39.7949C34.7852 39.7598 35.002 39.7188 35.166 39.6719C35.1426 39.8008 35.1133 39.9766 35.0781 40.1992C35.0547 40.4102 35.0312 40.6387 35.0078 40.8848C34.9961 41.1309 34.9844 41.377 34.9727 41.623C34.9609 41.8691 34.9551 42.0742 34.9551 42.2383C34.9551 42.8125 34.9727 43.2754 35.0078 43.627C35.0547 43.9668 35.125 44.2715 35.2188 44.541H34.9023C34.4219 44.541 33.9297 44.5879 33.4258 44.6816C32.9219 44.7637 32.4355 44.8809 31.9668 45.0332C31.498 45.1738 31.0586 45.3438 30.6484 45.543C30.2383 45.7422 29.8867 45.9531 29.5938 46.1758C29.4297 46.0703 29.2012 45.9824 28.9082 45.9121C28.627 45.8301 28.3105 45.7656 27.959 45.7188C27.6191 45.6602 27.2559 45.6191 26.8691 45.5957C26.4941 45.5723 26.1309 45.5605 25.7793 45.5605C25.3574 45.5605 24.918 45.5781 24.4609 45.6133C24.0039 45.6484 23.5645 45.7012 23.1426 45.7715C22.7324 45.8301 22.3574 45.8945 22.0176 45.9648C21.6777 46.0352 21.4141 46.1055 21.2266 46.1758C21.1211 45.8711 20.8457 45.5371 20.4004 45.1738C19.9668 44.8105 19.457 44.4766 18.8711 44.1719C18.2852 43.8555 17.6641 43.5918 17.0078 43.3809C16.3516 43.1699 15.7539 43.0645 15.2148 43.0645C15.1562 43.0645 15.1035 43.0703 15.0566 43.082C15.0098 43.082 14.9629 43.082 14.916 43.082ZM26.6055 34.082C27.0742 34.082 27.4434 34.0645 27.7129 34.0293C27.9941 33.9941 28.2051 33.9238 28.3457 33.8184C28.498 33.7129 28.5918 33.5723 28.627 33.3965C28.6738 33.209 28.6973 32.9629 28.6973 32.6582C28.6973 32.0957 28.457 31.6387 27.9766 31.2871C27.4961 30.9355 26.7461 30.7598 25.7266 30.7598C25.0938 30.7598 24.5488 30.8125 24.0918 30.918C23.6348 31.0234 23.248 31.2051 22.9316 31.4629C22.627 31.7207 22.3926 32.0605 22.2285 32.4824C22.0645 32.9043 21.9648 33.4375 21.9297 34.082H26.6055ZM26.957 24.6602C27.0859 24.3672 27.1914 23.957 27.2734 23.4297C27.3672 22.9023 27.4141 22.2344 27.4141 21.4258C27.4141 20.6875 27.3672 20.0312 27.2734 19.457C27.1797 18.8828 27.0684 18.4492 26.9395 18.1562C27.1152 18.2266 27.3496 18.291 27.6426 18.3496C27.9355 18.4082 28.2578 18.4609 28.6094 18.5078C28.9727 18.543 29.3535 18.5723 29.752 18.5957C30.1504 18.6191 30.5547 18.6309 30.9648 18.6309C31.3516 18.6309 31.7383 18.625 32.125 18.6133C32.5117 18.5898 32.8809 18.5605 33.2324 18.5254C33.584 18.4785 33.9004 18.4258 34.1816 18.3672C34.4629 18.3086 34.6855 18.2383 34.8496 18.1562C34.7207 18.4609 34.6211 18.9004 34.5508 19.4746C34.4805 20.0371 34.4453 20.6875 34.4453 21.4258C34.4453 22.8086 34.5801 23.8867 34.8496 24.6602C34.6855 24.6133 34.4629 24.5664 34.1816 24.5195C33.9004 24.4727 33.584 24.4316 33.2324 24.3965C32.8809 24.3496 32.5 24.3145 32.0898 24.291C31.6914 24.2676 31.2871 24.2559 30.877 24.2559C30.0332 24.2559 29.2598 24.3027 28.5566 24.3965C27.8535 24.4785 27.3203 24.5664 26.957 24.6602ZM15.8828 24.6602C16.0117 24.3672 16.1172 23.957 16.1992 23.4297C16.293 22.9023 16.3398 22.2344 16.3398 21.4258C16.3398 20.6875 16.293 20.0312 16.1992 19.457C16.1055 18.8828 15.9941 18.4492 15.8652 18.1562C16.041 18.2266 16.2754 18.291 16.5684 18.3496C16.8613 18.4082 17.1836 18.4609 17.5352 18.5078C17.8984 18.543 18.2793 18.5723 18.6777 18.5957C19.0762 18.6191 19.4805 18.6309 19.8906 18.6309C20.2773 18.6309 20.6641 18.625 21.0508 18.6133C21.4375 18.5898 21.8066 18.5605 22.1582 18.5254C22.5098 18.4785 22.8262 18.4258 23.1074 18.3672C23.3887 18.3086 23.6113 18.2383 23.7754 18.1562C23.6465 18.4609 23.5469 18.9004 23.4766 19.4746C23.4062 20.0371 23.3711 20.6875 23.3711 21.4258C23.3711 22.8086 23.5059 23.8867 23.7754 24.6602C23.6113 24.6133 23.3887 24.5664 23.1074 24.5195C22.8262 24.4727 22.5098 24.4316 22.1582 24.3965C21.8066 24.3496 21.4258 24.3145 21.0156 24.291C20.6172 24.2676 20.2129 24.2559 19.8027 24.2559C18.959 24.2559 18.1855 24.3027 17.4824 24.3965C16.7793 24.4785 16.2461 24.5664 15.8828 24.6602Z" fill="#2B2A2A"/>
</svg>
